<?xml version="1.0" standalone="no"?>
<!DOCTYPE svg PUBLIC "-//W3C//DTD SVG 20010904//EN"
 "http://www.w3.org/TR/2001/REC-SVG-20010904/DTD/svg10.dtd">
<svg version="1.0" xmlns="http://www.w3.org/2000/svg"
 width="491.000000pt" height="491.000000pt" viewBox="0 0 491.000000 491.000000"
 preserveAspectRatio="xMidYMid meet">
<metadata>
Created by potrace 1.11, written by Peter Selinger 2001-2013
</metadata>
<g transform="translate(0.000000,491.000000) scale(0.100000,-0.100000)"
fill="#000000" stroke="none">
<path d="M2437 4639 c-9 -24 -86 -278 -172 -564 -86 -286 -165 -539 -175 -561
-13 -31 -31 -49 -66 -70 -258 -146 -419 -305 -531 -520 -35 -67 -49 -83 -80
-97 -21 -10 -182 -62 -358 -118 -567 -177 -786 -250 -781 -258 3 -4 24 -13 48
-20 24 -8 63 -20 88 -27 87 -28 836 -256 880 -268 110 -32 115 -36 169 -148
64 -134 154 -269 233 -350 77 -78 230 -187 330 -232 84 -38 86 -42 137 -206
16 -52 54 -176 84 -275 31 -99 88 -286 128 -415 39 -129 77 -245 83 -257 10
-20 19 4 75 190 35 116 78 259 96 317 18 58 43 139 55 180 12 41 27 93 34 115
7 22 23 74 36 115 12 41 28 93 35 115 8 22 16 52 19 66 4 20 17 30 51 43 86
33 200 103 285 173 138 116 239 253 316 432 41 96 42 96 90 113 88 29 333 107
744 235 80 25 163 51 185 58 22 7 68 22 102 32 35 10 63 21 63 25 0 9 -73 36
-295 106 -190 61 -732 229 -770 239 -11 3 -40 14 -65 24 -38 17 -48 27 -68 72
-33 77 -110 192 -178 266 -81 88 -232 206 -342 266 l-92 50 -36 115 c-20 63
-42 133 -49 155 -14 44 -20 64 -93 300 -108 346 -144 463 -164 525 -34 110
-32 108 -51 59z m-7 -669 l0 -420 -47 0 c-27 -1 -88 -9 -138 -20 -49 -10 -92
-16 -94 -14 -4 4 19 84 55 189 7 22 17 56 23 75 5 19 39 132 75 250 37 118 76
248 88 288 13 39 26 72 30 72 5 0 8 -189 8 -420z m260 -521 c178 -43 385 -167
508 -305 180 -201 272 -440 272 -710 0 -400 -223 -765 -575 -941 -156 -78
-299 -108 -485 -100 -175 8 -294 39 -430 113 -277 152 -460 401 -526 714 -98
470 130 942 561 1158 78 39 212 80 300 91 99 14 275 4 375 -20z m-1304 -765
c-8 -33 -18 -92 -22 -131 l-7 -73 -409 0 c-260 0 -407 4 -403 10 5 9 211 77
560 186 83 25 182 56 220 68 81 26 83 24 61 -60z m2359 12 c121 -37 238 -73
260 -81 22 -7 108 -35 190 -60 83 -26 154 -51 160 -56 5 -5 -163 -9 -402 -9
l-411 0 -7 77 c-4 42 -13 101 -21 130 -17 66 -17 76 -1 70 6 -2 111 -34 232
-71z m-1467 -1366 c37 -5 87 -11 112 -12 l45 -3 3 -392 c2 -387 -3 -449 -28
-350 -6 23 -17 60 -25 82 -7 22 -32 101 -54 175 -23 74 -48 155 -56 180 -58
184 -95 310 -95 325 0 12 5 15 16 11 9 -3 46 -11 82 -16z"/>
<path d="M3102 3128 c-17 -13 -50 -38 -74 -56 -25 -19 -74 -42 -117 -55 -70
-21 -81 -28 -162 -107 -49 -48 -113 -100 -149 -120 -35 -19 -75 -48 -89 -63
-14 -16 -64 -58 -109 -93 -87 -68 -124 -79 -130 -39 -2 15 14 30 65 62 38 23
97 67 133 97 36 31 93 68 128 83 59 26 63 30 60 58 -2 22 -10 32 -31 39 -23 9
-31 6 -60 -21 -18 -18 -47 -33 -67 -36 -112 -17 -180 -31 -220 -48 -52 -22
-135 -39 -193 -39 -34 0 -46 -6 -89 -51 -57 -59 -67 -56 -93 21 -25 75 -70
101 -131 75 -53 -22 -67 -69 -43 -144 18 -57 24 -65 61 -83 53 -26 75 -69 81
-164 7 -109 30 -160 95 -207 76 -56 104 -63 146 -38 18 12 42 21 52 21 29 0
62 27 66 52 2 13 11 24 21 26 17 3 18 -4 14 -95 -2 -62 -10 -114 -21 -143 -16
-40 -17 -66 -11 -242 8 -250 7 -253 -129 -300 -22 -7 -41 -19 -44 -26 -3 -10
24 -12 130 -10 l133 4 7 104 c4 58 13 123 21 145 l14 40 69 5 69 5 7 113 c4
62 21 176 38 255 17 78 40 187 52 242 l21 100 82 85 c46 47 108 119 140 160
31 41 79 100 107 130 27 30 59 65 71 78 11 13 41 34 67 47 52 26 110 86 110
113 0 45 -50 55 -98 20z"/>
</g>
</svg>
